<svg xmlns="http://www.w3.org/2000/svg" width="42" height="42" viewBox="0 0 42 42"><path d="M14.5 29.61V15.5h13v14.11a.89.89 0 0 1-.89.89H15.39a.89.89 0 0 1-.89-.89zm-1-15.36v1.25h15v-1.25a.75.75 0 0 0-.75-.75h-13.5a.75.75 0 0 0-.75.75z" fill="none" stroke="#000" stroke-miterlimit="10"/><path d="M18.5 14v-2a.48.48 0 0 1 .5-.5h4a.48.48 0 0 1 .48.48v2" fill="none" stroke="#000" stroke-miterlimit="10"/><path fill="none" stroke="#000" stroke-miterlimit="10" stroke-width=".981" d="M18.15 27.63V18m2.88 9.63V18m3.01 9.63V18"/></svg>